# xmcd
#
# Track frame offsets: 
#        150
#        15523
#        32512
#        58075
#        81698
#        99243
#        118958
#        141896
#        166342
#        181793
#        201188
#        229056
#        247518
#        261330
#        296616
#        317379
#        331653
#        346959
#
# Disc length: 4798 seconds
#
# Revision: 1
# Processed by: cddbd v1.5.2PL0 Copyright (c) Steve Scherf et al.
# Submitted via: ExactAudioCopy v0.99pb3
#
DISCID=f312bc12
DTITLE=Various Artist - Whiskey, Bikers and The Blues Vol.1
DYEAR=2000
DGENRE=Blues
TTITLE0=Dr. Feelgood - Whiskey
TTITLE1=Guitar Pete - Mustang Sally
TTITLE2=BTO - House of the Rising Sun
TTITLE3=James Solberg - See That My Grave Is Kept Clean
TTITLE4=George Thorogood - The Usual
TTITLE5=Omar and The Howlers - Black Bottom
TTITLE6=Jimmy Thackery - That's How I Feel
TTITLE7=Dave Hole - Demolition Man
TTITLE8=Dr. John - I Don't Wanna Know
TTITLE9=Alex Parche - Run for Cover
TTITLE10=Tinsley Ellis - Early in the Morning
TTITLE11=Crossroad Jam - Let in Rain-BLUES
TTITLE12=Hamburg Blues Band - Give-Power to the Blue
TTITLE13=Julian Sas - Make Up Your Mind
TTITLE14=Jim Suhler and Monkey Beat - Bad News
TTITLE15=Long John Baldry - It's Too Late Brother
TTITLE16=Jay Hooks - Easy Way Out
TTITLE17=Omar and The Howlers - I Told You So
EXTD=
EXTT0=
EXTT1=
EXTT2=
EXTT3=
EXTT4=
EXTT5=
EXTT6=
EXTT7=
EXTT8=
EXTT9=
EXTT10=
EXTT11=
EXTT12=
EXTT13=
EXTT14=
EXTT15=
EXTT16=
EXTT17=
PLAYORDER=
